<svg xmlns="http://www.w3.org/2000/svg" viewBox="0 0 400 400">
  <!-- Fondo cálido -->
  <rect width="400" height="400" fill="#3a2618" opacity="0.2"/>
  
  <!-- Manos sosteniendo la taza -->
  <path d="M120,200 C100,180 90,160 100,140 C110,120 130,110 150,120 C160,125 170,135 175,150" fill="#e8a798" stroke="#c27d71" stroke-width="2"/>
  <path d="M280,200 C300,180 310,160 300,140 C290,120 270,110 250,120 C240,125 230,135 225,150" fill="#e8a798" stroke="#c27d71" stroke-width="2"/>
  
  <!-- Taza -->
  <ellipse cx="200" cy="170" rx="80" ry="30" fill="#f5f5f5" stroke="#d0d0d0" stroke-width="2"/>
  <path d="M120,170 L120,230 C120,260 160,280 200,280 C240,280 280,260 280,230 L280,170" fill="#f5f5f5" stroke="#d0d0d0" stroke-width="2"/>
  <ellipse cx="200" cy="230" rx="80" ry="30" fill="none" stroke="#d0d0d0" stroke-width="2"/>
  
  <!-- Asa de la taza -->
  <path d="M280,180 C310,180 320,200 320,220 C320,240 300,250 280,250" fill="none" stroke="#d0d0d0" stroke-width="8" stroke-linecap="round"/>
  
  <!-- Café dentro de la taza -->
  <ellipse cx="200" cy="170" rx="70" ry="20" fill="#4a2c2a"/>
  <ellipse cx="200" cy="170" rx="30" ry="10" fill="#6b4c3d"/>
  
  <!-- Reflejo en el café -->
  <path d="M180,165 C190,160 210,160 220,165" fill="none" stroke="#d0d0d0" stroke-width="2" opacity="0.7"/>
  <path d="M170,175 C190,170 210,170 230,175" fill="none" stroke="#d0d0d0" stroke-width="1" opacity="0.5"/>
</svg>